<svg width="25" height="24" viewBox="0 0 25 24" fill="none" xmlns="http://www.w3.org/2000/svg">
<path d="M12.353 23C10.8095 21.6835 9.37889 20.2402 8.07602 18.6852C6.12084 16.35 3.79907 12.8722 3.79907 9.55818C3.79823 7.86568 4.29949 6.21097 5.23942 4.80347C6.17935 3.39596 7.5157 2.29893 9.07935 1.6512C10.643 1.00348 12.3637 0.834177 14.0236 1.16473C15.6835 1.49527 17.208 2.31081 18.4042 3.50813C19.2007 4.30103 19.8319 5.24401 20.2615 6.28249C20.6911 7.32098 20.9104 8.43435 20.9068 9.55818C20.9068 12.8722 18.5851 16.35 16.6299 18.6852C15.327 20.2402 13.8964 21.6835 12.353 23ZM12.353 5.89222C11.3807 5.89222 10.4482 6.27846 9.76074 6.96596C9.07324 7.65346 8.68701 8.58591 8.68701 9.55818C8.68701 10.5304 9.07324 11.4629 9.76074 12.1504C10.4482 12.8379 11.3807 13.2241 12.353 13.2241C13.3252 13.2241 14.2577 12.8379 14.9452 12.1504C15.6327 11.4629 16.0189 10.5304 16.0189 9.55818C16.0189 8.58591 15.6327 7.65346 14.9452 6.96596C14.2577 6.27846 13.3252 5.89222 12.353 5.89222Z" fill="#FA8B02"/>
</svg>
