<svg width="25" height="24" viewBox="0 0 25 24" fill="none" xmlns="http://www.w3.org/2000/svg">
<path d="M5.51969 2.83301C4.54723 2.83301 3.6146 3.21932 2.92697 3.90695C2.23934 4.59458 1.85303 5.52721 1.85303 6.49967V6.86818L12.853 12.7917L23.853 6.87001V6.49967C23.853 5.52721 23.4667 4.59458 22.7791 3.90695C22.0915 3.21932 21.1588 2.83301 20.1864 2.83301H5.51969ZM23.853 8.95084L13.2875 14.6397C13.154 14.7116 13.0047 14.7492 12.853 14.7492C12.7014 14.7492 12.5521 14.7116 12.4185 14.6397L1.85303 8.95084V17.4997C1.85303 18.4721 2.23934 19.4048 2.92697 20.0924C3.6146 20.78 4.54723 21.1663 5.51969 21.1663H20.1864C21.1588 21.1663 22.0915 20.78 22.7791 20.0924C23.4667 19.4048 23.853 18.4721 23.853 17.4997V8.95084Z" fill="#FA8B02"/>
</svg>
