<svg width="25" height="24" viewBox="0 0 25 24" fill="none" xmlns="http://www.w3.org/2000/svg">
<g clip-path="url(#clip0_3_4292)">
<path d="M10.9997 13.7601C12.3913 15.1718 14.0752 16.2618 15.933 16.9534L18.4464 14.9534C18.5209 14.9021 18.6092 14.8746 18.6997 14.8746C18.7902 14.8746 18.8785 14.9021 18.953 14.9534L23.6197 17.9601C23.7969 18.0666 23.9468 18.2128 24.0578 18.3873C24.1687 18.5617 24.2376 18.7595 24.2589 18.9652C24.2802 19.1708 24.2535 19.3785 24.1807 19.572C24.108 19.7655 23.9912 19.9394 23.8397 20.0801L21.653 22.2401C21.3399 22.5495 20.955 22.7766 20.5327 22.901C20.1105 23.0255 19.6639 23.0435 19.233 22.9534C14.9345 22.0656 10.9724 19.9864 7.79969 16.9534C4.69735 13.8902 2.55054 9.99264 1.61969 5.7334C1.52773 5.30916 1.54693 4.86836 1.67541 4.45372C1.80389 4.03908 2.0373 3.66465 2.35302 3.36674L4.61969 1.18007C4.75996 1.03593 4.93101 0.925387 5.12006 0.856722C5.3091 0.788057 5.51122 0.763049 5.7113 0.78357C5.91137 0.80409 6.10421 0.869608 6.27538 0.975217C6.44655 1.08083 6.59161 1.22379 6.69969 1.3934L9.80636 6.00007C9.85994 6.07241 9.88887 6.16005 9.88887 6.25007C9.88887 6.34009 9.85994 6.42773 9.80636 6.50007L7.75969 8.96007C8.47008 10.7807 9.57685 12.4204 10.9997 13.7601Z" fill="#FA8B02"/>
</g>
<defs>
<clipPath id="clip0_3_4292">
<rect width="24" height="24" fill="white" transform="translate(0.853027)"/>
</clipPath>
</defs>
</svg>
