<svg width="13" height="13" viewBox="0 0 13 13" fill="none" xmlns="http://www.w3.org/2000/svg">
<path d="M7.9399 6.91991L12.7999 2.05991C12.9091 1.93238 12.9662 1.76833 12.9597 1.60054C12.9532 1.43276 12.8837 1.2736 12.7649 1.15487C12.6462 1.03614 12.4871 0.966586 12.3193 0.960105C12.1515 0.953624 11.9874 1.0107 11.8599 1.11991L6.9999 5.97991L2.1399 1.11325C2.01237 1.00403 1.84832 0.946958 1.68053 0.953439C1.51275 0.95992 1.35359 1.02947 1.23486 1.1482C1.11613 1.26693 1.04657 1.42609 1.04009 1.59388C1.03361 1.76166 1.09068 1.92571 1.1999 2.05325L6.0599 6.91991L1.19323 11.7799C1.12345 11.8397 1.06677 11.9132 1.02675 11.9959C0.986735 12.0786 0.964248 12.1687 0.960702 12.2605C0.957156 12.3524 0.972626 12.4439 1.00614 12.5295C1.03966 12.615 1.0905 12.6927 1.15547 12.7577C1.22044 12.8227 1.29814 12.8735 1.38369 12.907C1.46924 12.9405 1.56079 12.956 1.6526 12.9524C1.74442 12.9489 1.8345 12.9264 1.91721 12.8864C1.99992 12.8464 2.07347 12.7897 2.13323 12.7199L6.9999 7.85991L11.8599 12.7199C11.9874 12.8291 12.1515 12.8862 12.3193 12.8797C12.4871 12.8732 12.6462 12.8037 12.7649 12.685C12.8837 12.5662 12.9532 12.4071 12.9597 12.2393C12.9662 12.0715 12.9091 11.9074 12.7999 11.7799L7.9399 6.91991Z" fill="#333333"/>
</svg>
