<svg width="24" height="25" viewBox="0 0 24 25" fill="none" xmlns="http://www.w3.org/2000/svg">
<g clip-path="url(#clip0_2_1707)">
<path d="M5.26599 10.6849C5.73387 9.26937 6.63685 8.03773 7.84611 7.16572C9.05536 6.29371 10.5091 5.82586 12 5.82892C13.69 5.82892 15.218 6.42892 16.418 7.41092L19.91 3.91992C17.782 2.06492 15.055 0.919922 12 0.919922C7.26999 0.919922 3.19799 3.61792 1.23999 7.56992L5.26599 10.6849Z" fill="#EA4335"/>
<path d="M16.0401 18.933C14.9501 19.636 13.5661 20.011 12.0001 20.011C10.5151 20.014 9.06686 19.5499 7.8603 18.6843C6.65373 17.8188 5.75 16.5956 5.27706 15.188L1.23706 18.255C2.22831 20.2613 3.76233 21.9494 5.66488 23.1275C7.56744 24.3057 9.76227 24.9267 12.0001 24.92C14.9331 24.92 17.7351 23.877 19.8341 21.92L16.0411 18.933H16.0401Z" fill="#34A853"/>
<path d="M19.8338 21.9199C22.0288 19.8719 23.4538 16.8239 23.4538 12.9199C23.4538 12.2099 23.3448 11.4469 23.1818 10.7379H11.9998V15.3749H18.4358C18.1188 16.9339 17.2658 18.1409 16.0408 18.9329L19.8338 21.9199Z" fill="#4A90E2"/>
<path d="M5.27712 15.1879C5.03247 14.4569 4.90819 13.6909 4.90912 12.9199C4.90912 12.1379 5.03412 11.3869 5.26612 10.6849L1.24012 7.56995C0.416494 9.23263 -0.00807994 11.0645 0.000116455 12.9199C0.000116455 14.8399 0.445116 16.6499 1.23712 18.2549L5.27712 15.1879Z" fill="#FBBC05"/>
</g>
<defs>
<clipPath id="clip0_2_1707">
<rect width="24" height="24" fill="white" transform="translate(0 0.919922)"/>
</clipPath>
</defs>
</svg>
