<svg width="17" height="20" viewBox="0 0 17 20" fill="none" xmlns="http://www.w3.org/2000/svg">
<path d="M3.01477 0.950195C3.24107 0.947727 3.458 1.02444 3.61438 1.15723C3.7713 1.29055 3.86823 1.48143 3.84778 1.7041C3.82262 1.97108 3.88177 2.17304 3.99036 2.34668C4.10027 2.52241 4.26185 2.67098 4.44446 2.83008L4.69543 3.03516C5.96672 4.00415 7.43438 4.14549 8.99915 3.95996C9.93987 3.85163 10.8864 3.68848 11.8448 3.68848C13.5935 3.6885 15.0337 4.36642 16.2091 5.63867C16.2624 5.69647 16.3242 5.7627 16.3566 5.83691C16.3733 5.87534 16.3834 5.91717 16.38 5.96289C16.3766 6.00855 16.3609 6.05507 16.3312 6.10254C16.2718 6.19735 16.1945 6.24579 16.1066 6.25488C16.0221 6.26354 15.9342 6.23513 15.8527 6.19434C14.8689 5.69862 13.8917 5.829 12.9093 6.23438C12.8634 6.25295 12.817 6.27187 12.7716 6.29199C12.5984 6.36906 12.4317 6.46086 12.2736 6.56543C11.5031 7.07267 10.4779 7.78023 9.44153 8.43164C8.40537 9.0829 7.35198 9.68189 6.52454 9.9707C5.72078 10.2517 4.90604 10.3312 4.07825 10.0723C4.02908 10.0568 3.98966 10.0476 3.95911 10.0449C3.92865 10.0422 3.91152 10.0458 3.90149 10.0518C3.89258 10.057 3.8829 10.068 3.87512 10.0938C3.86705 10.1206 3.86227 10.1603 3.8634 10.2168C3.8728 10.7393 3.87123 11.2618 3.8634 11.7832C3.86347 11.8666 3.87541 11.9107 3.89856 11.9385C3.92186 11.9663 3.96547 11.9886 4.05676 12.0049C4.48347 12.0807 4.79177 12.2266 4.99231 12.4697C5.19264 12.7126 5.27935 13.0443 5.27942 13.4775L5.29016 14.7305C5.2927 15.1487 5.29024 15.5672 5.27063 15.9844C5.23026 16.8424 5.35389 17.6521 5.71985 18.4258C5.76896 18.5308 5.80142 18.6215 5.81262 18.6992C5.82386 18.7775 5.81477 18.8478 5.77551 18.9043C5.7366 18.9602 5.67398 18.9949 5.5968 19.0156C5.51967 19.0363 5.42246 19.0449 5.30676 19.0449V19.0439C4.41832 19.0494 3.53343 19.0373 2.64661 19.0498C2.48341 19.0518 2.34406 19.0213 2.25305 18.9385C2.15902 18.8528 2.12873 18.7229 2.15735 18.5566C2.23201 18.1251 2.17669 17.7611 2.02063 17.4453C1.90328 17.2079 1.72769 16.9955 1.50403 16.8008L1.26477 16.6113C0.779998 16.2622 0.575736 15.77 0.627075 15.1689C0.639762 15.0182 0.639378 14.8659 0.636841 14.7119C0.634316 14.5587 0.629393 14.4024 0.632935 14.2471V14.2461C0.64528 13.9103 0.781906 13.5909 1.01672 13.3506C1.25161 13.1103 1.56803 12.9663 1.90344 12.9463L1.99329 12.9346C2.07079 12.9192 2.11256 12.8926 2.13782 12.8584C2.17395 12.8095 2.18663 12.7317 2.18665 12.5996C2.18117 9.93916 2.18176 7.27854 2.18176 4.61816V4.26465C2.1802 3.42205 2.17421 1.94664 2.18762 1.70996C2.21276 1.25392 2.56092 0.955191 3.01477 0.950195ZM2.94934 18.0674C2.90491 18.0674 2.86184 18.085 2.8302 18.1162C2.79878 18.1473 2.78016 18.1892 2.77942 18.2334V18.2344C2.77759 18.311 2.79239 18.353 2.81458 18.377C2.83633 18.4003 2.87617 18.4179 2.95422 18.418H3.89368C4.18332 18.418 4.46735 18.4263 4.7511 18.4131C4.78386 18.4114 4.82229 18.4174 4.85364 18.4219C4.88769 18.4267 4.91682 18.4302 4.94153 18.4287C4.96557 18.4272 4.97785 18.4214 4.9845 18.4141C4.99149 18.4062 5.00185 18.3863 5.00012 18.3389C4.99751 18.2707 4.98347 18.2012 4.95032 18.1504C4.91939 18.1032 4.86886 18.0678 4.77844 18.0674H2.94934ZM4.4386 12.8223C4.28082 12.6753 4.10405 12.5833 3.9259 12.6553C3.89251 12.6688 3.8744 12.6875 3.8634 12.708C3.85175 12.7298 3.84627 12.7575 3.84583 12.792C3.84539 12.8266 3.84986 12.8646 3.85559 12.9043C3.86107 12.9422 3.86733 12.9837 3.86926 13.0205L3.87024 13.1582C3.86118 13.2866 3.82287 13.3871 3.74719 13.457C3.64744 13.5492 3.49589 13.5766 3.30872 13.5674C2.88336 13.5503 2.454 13.5619 2.02356 13.5674C1.75321 13.5705 1.56837 13.6333 1.44934 13.7539C1.33017 13.8747 1.26804 14.0627 1.26379 14.3369C1.25918 14.6442 1.27614 14.965 1.25891 15.2783C1.23966 15.6141 1.36941 15.856 1.61438 16.0957C1.71233 16.1911 1.81742 16.2806 1.92395 16.3711C2.03003 16.4612 2.13771 16.5526 2.23938 16.6494C2.44316 16.8435 2.62596 17.0635 2.72864 17.3564C2.73826 17.3841 2.75123 17.4013 2.76477 17.4121C2.7786 17.4231 2.79636 17.4302 2.81848 17.4346C2.84103 17.4391 2.86682 17.4407 2.89563 17.4404C2.90992 17.4403 2.92455 17.4399 2.93958 17.4395C2.95425 17.439 2.96947 17.4385 2.9845 17.4385H2.98547C3.45094 17.4439 3.92547 17.4277 4.39465 17.4434C4.51329 17.4487 4.57195 17.4286 4.60266 17.3955C4.63468 17.3609 4.65127 17.2978 4.64856 17.1816C4.63446 16.5433 4.6427 15.9043 4.6427 15.2676V13.3896C4.64346 13.166 4.59989 12.9713 4.43958 12.8223H4.4386ZM3.01965 1.56836C2.94436 1.56708 2.89414 1.59115 2.86145 1.62695C2.82778 1.6639 2.80696 1.72018 2.80481 1.79395C2.79546 2.07903 2.79894 4.53935 2.80286 4.82812V12.5781C2.80286 12.6143 2.79854 12.6526 2.79504 12.6865C2.7914 12.7219 2.78937 12.7543 2.79114 12.7842C2.7929 12.8136 2.79847 12.8389 2.81067 12.8604C2.81664 12.8709 2.82441 12.8815 2.83508 12.8916L2.8761 12.9209L2.87903 12.9219C2.91445 12.9433 2.95482 12.9547 2.99622 12.9551C3.03783 12.9554 3.07944 12.9449 3.11536 12.9238C3.15114 12.9028 3.18028 12.8723 3.20032 12.8359C3.22041 12.7995 3.23101 12.7584 3.22961 12.7168L3.22864 12.7139V1.80078H3.22961C3.22731 1.72452 3.20774 1.66807 3.1759 1.63086C3.14492 1.59477 3.09579 1.56973 3.01965 1.56836ZM3.91125 3.19434C3.87486 3.22909 3.86407 3.2646 3.86145 3.30078C3.8597 3.32513 3.86137 3.35062 3.86438 3.37891C3.86723 3.40563 3.87118 3.43709 3.87122 3.4668C3.8673 5.31916 3.87691 7.17193 3.86047 9.02344C3.859 9.16586 3.88552 9.25601 3.93567 9.31934C3.98648 9.38334 4.06787 9.42779 4.1925 9.46582C5.08927 9.736 5.94403 9.58689 6.7843 9.2168C7.9673 8.691 8.98986 7.91027 10.0626 7.1875C10.2798 7.04087 11.5086 6.29327 11.9972 5.99512C12.0544 5.95007 12.1178 5.91268 12.1847 5.88379C12.9617 5.46848 13.8238 5.24088 14.7032 5.21484C14.0069 4.69455 13.1729 4.38877 12.3029 4.3418H12.3019C11.2292 4.26952 10.1817 4.44631 9.12024 4.58203C7.19381 4.82857 5.39866 4.57158 3.91125 3.19434Z" fill="#333333" stroke="#333333" stroke-width="0.1"/>
</svg>
