<svg width="59" height="58" viewBox="0 0 59 58" fill="none" xmlns="http://www.w3.org/2000/svg">
<path d="M24.0996 17.4514C25.56 16.9376 26.7017 17.7734 27.5898 18.6565C28.843 19.9045 29.424 21.5198 29.6816 23.1624V23.1633C30.1713 26.3607 30.0684 29.5581 28.6221 32.5452L28.4775 32.8333C28.3789 33.0256 28.3206 33.1645 28.2949 33.2649C28.2684 33.3685 28.2883 33.386 28.2812 33.3743C28.2734 33.3613 28.2768 33.3855 28.377 33.4084C28.4752 33.431 28.6232 33.4425 28.8389 33.4407C32.7739 33.408 36.6802 33.4636 40.6094 33.4084C41.3933 33.3969 42.126 33.4961 42.75 33.802C43.3814 34.1115 43.8836 34.6234 44.2139 35.4006L44.3193 35.6731C44.5401 36.3062 44.5822 36.9267 44.4355 37.512C44.268 38.1807 43.8595 38.78 43.2373 39.2883L43.2383 39.2893C43.066 39.4302 43.0575 39.4998 43.0576 39.5334C43.0578 39.5616 43.0651 39.603 43.0908 39.6682C43.117 39.7346 43.1559 39.8098 43.207 39.9094L43.376 40.2581C43.7379 41.0583 43.8669 41.7684 43.7021 42.4407C43.5145 43.2062 42.9593 43.866 42.0811 44.5295H42.0801C41.895 44.668 41.8495 44.7333 41.8359 44.7776C41.8236 44.8179 41.8212 44.8981 41.9111 45.1194L41.9121 45.1233C42.3235 46.1799 42.446 47.048 42.1611 47.8137C41.877 48.577 41.2101 49.178 40.1953 49.7561L40.1934 49.7571C39.9843 49.8739 39.9579 49.9385 39.9512 49.9651C39.9386 50.0154 39.9501 50.0981 40.0225 50.3274L40.0967 50.5823C40.4338 51.8474 40.2599 52.985 39.6396 53.8274C39.0195 54.6694 37.9833 55.1754 36.6758 55.2375L36.4102 55.2444C30.8143 55.2444 25.2227 55.2315 19.6309 55.259H19.6299C19.1455 55.259 18.7006 55.114 18.3096 54.9827C17.9041 54.8464 17.5651 54.7294 17.2314 54.7258C17.1043 54.7261 17.0185 54.7719 16.9385 54.8586C16.8473 54.9575 16.7707 55.1026 16.6797 55.2952C16.5944 55.4757 16.496 55.699 16.3682 55.8958C16.2372 56.0972 16.0629 56.292 15.8086 56.4143L15.8076 56.4133C15.2151 56.7093 14.5627 56.8659 13.9004 56.8694H3.75391C2.7151 56.8628 1.8948 56.5994 1.33398 56.0305C0.774315 55.4625 0.51467 54.6322 0.50293 53.5823V34.2942C0.50293 33.0521 0.729599 32.1283 1.3252 31.5227C1.92188 30.9161 2.83256 30.6858 4.05371 30.6858C7.22941 30.6858 10.3989 30.7102 13.5674 30.6702H13.5684C14.3273 30.6599 15.037 30.7564 15.6299 31.0706C16.2321 31.3897 16.6902 31.9211 16.9639 32.7288C17.0199 32.894 17.0714 32.9532 17.0938 32.9709C17.1021 32.9776 17.1055 32.9811 17.1309 32.9758C17.1707 32.9675 17.2265 32.9412 17.3096 32.8909C17.3767 32.8501 17.485 32.7786 17.5732 32.7327L17.833 32.592C20.4778 31.1062 21.7574 28.689 22.2656 25.7092C22.5521 24.0348 22.5123 22.3547 22.5527 20.6282C22.5661 20.061 22.5647 19.401 22.7471 18.8274C22.9368 18.2309 23.3269 17.7198 24.0996 17.4514ZM10.5654 32.2795C10.0849 32.2399 9.90279 32.3296 9.81738 32.4338C9.74024 32.5283 9.69387 32.6857 9.67871 32.9495L9.67383 33.2502V33.2512C9.72145 36.4219 9.69098 39.5966 9.68848 42.7717C9.69668 43.115 9.68331 43.4586 9.64746 43.8L9.64551 43.7991C9.63615 43.9822 9.56343 44.1564 9.43652 44.2893C9.31014 44.4215 9.14054 44.5016 8.95898 44.5198L8.95996 44.5217C8.85044 44.5395 8.73846 44.532 8.63184 44.5012C8.52504 44.4704 8.42608 44.4166 8.34277 44.343C8.25943 44.2694 8.19319 44.1777 8.14941 44.0754C8.10669 43.9755 8.08579 43.8676 8.08887 43.759C8.05638 43.4267 8.0421 43.0929 8.04883 42.759C8.04883 39.5515 8.02648 36.3359 8.06152 33.1243C8.0615 32.7262 7.99381 32.5377 7.89941 32.4417C7.83179 32.3729 7.71605 32.3168 7.49707 32.301L7.24121 32.3C6.11987 32.3526 4.95275 32.2995 3.85742 32.3167L3.8584 32.3176C3.12462 32.3312 2.72836 32.4511 2.50195 32.678C2.27656 32.9041 2.15847 33.2975 2.15723 34.0315C2.14387 40.5428 2.14387 47.0485 2.15723 53.5481V53.5491C2.15724 54.2663 2.28349 54.6678 2.5166 54.9006C2.75004 55.1335 3.15113 55.2576 3.8623 55.26C7.11239 55.275 10.3678 55.275 13.6279 55.26H13.6289C14.4193 55.26 14.841 55.1319 15.0811 54.884C15.3235 54.6337 15.444 54.1972 15.4453 53.3987L15.4375 43.7639V34.2463C15.4375 33.3756 15.3281 32.9269 15.0898 32.676C14.8549 32.4289 14.4312 32.3088 13.5889 32.3C12.6091 32.3001 11.5796 32.3632 10.5654 32.2795ZM25.9443 19.4524C25.498 19.1182 25.1064 18.9013 24.6816 19.0667C24.4562 19.1571 24.3607 19.3026 24.3105 19.4934C24.2529 19.7133 24.2624 19.9527 24.2471 20.2463V20.2473C24.1536 21.9249 24.1937 23.6845 23.9951 25.384C23.5214 29.4872 21.6366 32.7407 17.7275 34.5325L17.7285 34.5334C17.4047 34.6835 17.2693 34.8581 17.2012 35.0442C17.1254 35.2516 17.1221 35.4974 17.1221 35.8264V51.4749C17.1221 52.2035 17.2727 52.6943 17.5615 53.0256C17.8486 53.3549 18.3092 53.5696 19.0244 53.6653C19.3052 53.689 19.5876 53.6954 19.8691 53.6829L19.8779 53.6819L28.0127 53.6272H28.0146C30.8542 53.6272 33.6899 53.6422 36.5293 53.6272H36.5303C37.8192 53.6272 38.6992 52.7847 38.7275 51.7288C38.7419 51.1925 38.5533 50.7886 38.209 50.511C37.856 50.2265 37.3113 50.0531 36.583 50.0471C34.5872 50.0322 32.5751 50.0473 30.5732 50.0198C30.4537 50.0198 30.3503 50.0288 30.1973 50.0325C30.0611 50.0357 29.9056 50.0333 29.7588 50.0012C29.6096 49.9686 29.4508 49.9008 29.3301 49.76C29.2083 49.618 29.1513 49.4319 29.1475 49.2131C29.1436 48.9956 29.1923 48.8074 29.3057 48.6604C29.4186 48.5141 29.5726 48.4384 29.7207 48.3987C29.8663 48.3596 30.0221 48.3508 30.1602 48.3499C30.23 48.3494 30.2997 48.3513 30.3643 48.3528C30.4303 48.3543 30.491 48.355 30.5479 48.3547H30.5498C33.2597 48.3547 35.9713 48.3547 38.6826 48.3372H38.6846C39.3791 48.3371 39.8793 48.1663 40.2012 47.887C40.517 47.6128 40.6934 47.2068 40.6885 46.6624L40.6758 46.4739C40.6295 46.0485 40.4577 45.7199 40.1855 45.4866C39.8699 45.2161 39.3909 45.0486 38.7412 45.0403H38.7402C37.1571 45.0178 35.5781 45.0403 33.9854 45.0403C33.8649 45.0403 33.7664 45.0495 33.6113 45.053C33.4758 45.056 33.3194 45.0534 33.1729 45.0188C33.0232 44.9834 32.8641 44.9103 32.749 44.76C32.6343 44.61 32.5892 44.4168 32.5967 44.1936H32.5957C32.6027 43.9767 32.6632 43.7928 32.7852 43.6526C32.9058 43.5141 33.0634 43.4464 33.2119 43.4124C33.3582 43.3788 33.5131 43.3738 33.6494 43.3752C33.8039 43.3769 33.9063 43.3843 34.0283 43.3831H34.0293C35.9912 43.3705 37.9553 43.3831 39.9141 43.3831C40.7076 43.383 41.2377 43.2358 41.5684 42.9768C41.8866 42.7274 42.0614 42.3412 42.0684 41.7551C42.0752 41.172 41.9019 40.7677 41.584 40.5002C41.2976 40.2595 40.8631 40.1025 40.2529 40.0598L39.9805 40.0491H34.3486C34.1364 40.0491 33.8781 40.0262 33.6738 39.8997C33.5658 39.8327 33.4734 39.7371 33.4141 39.6077C33.3703 39.5122 33.349 39.4064 33.3457 39.2932L33.3477 39.177C33.3559 39.0324 33.3953 38.9027 33.4697 38.7942C33.5452 38.6844 33.6458 38.6124 33.749 38.5657C33.9416 38.4786 34.1738 38.4684 34.3359 38.4602H34.3379C34.6347 38.4474 34.9478 38.4592 35.2256 38.4592C37.1865 38.4592 39.1466 38.46 41.1064 38.4475H41.1084C41.4832 38.4475 41.8093 38.379 42.0742 38.2336C42.3351 38.0905 42.5511 37.8643 42.6992 37.5188L42.7041 37.509L42.7539 37.3958C42.8608 37.1276 42.8992 36.8361 42.8652 36.5481C42.8264 36.2193 42.6949 35.908 42.4854 35.6516L42.4814 35.6477C42.0372 35.0777 41.4071 35.0754 40.623 35.0754H27.2256C27.1359 35.0755 27.0611 35.0799 26.9521 35.0823C26.8536 35.0844 26.7423 35.0837 26.6309 35.0667C26.3955 35.0306 26.1563 34.921 25.9932 34.6438C25.8273 34.3619 25.8569 34.0968 25.9561 33.8752C26.0434 33.6802 26.2019 33.4908 26.2891 33.3694C28.5922 30.1301 28.6111 26.5065 27.9492 22.7493L27.9482 22.7463C27.745 21.5126 27.1013 20.3973 26.1406 19.6057L25.9443 19.4524Z" fill="#FA8B02" stroke="#FA8B02" stroke-width="0.5"/>
<path d="M41.5356 1.1394C49.6521 1.37491 56.4655 7.10612 58.1431 15.1541C59.7921 23.0618 55.6368 31.2705 48.2817 34.5222L48.2827 34.5232C48.13 34.591 47.9575 34.6947 47.7515 34.8123C47.5546 34.9246 47.3317 35.0467 47.1089 35.1238C46.8874 35.2004 46.6328 35.2445 46.3853 35.1638C46.128 35.0799 45.9293 34.8782 45.7896 34.571C45.6515 34.2674 45.6266 33.9884 45.7417 33.7468C45.8518 33.5159 46.0641 33.3757 46.2661 33.283C46.4703 33.1892 46.7069 33.1252 46.9116 33.0701C47.1285 33.0117 47.3046 32.9641 47.4321 32.905C54.2775 29.7202 57.9556 22.3414 56.27 15.0662C54.6164 7.91934 48.0887 2.85885 40.7017 2.98706C37.4336 3.04259 34.2661 4.12679 31.6489 6.08472C29.0318 8.04264 27.0975 10.7749 26.1216 13.8943V13.8953C26.026 14.1988 25.9329 14.5383 25.8247 14.8552C25.7961 14.9725 25.7447 15.0835 25.6724 15.1804C25.5938 15.2856 25.4931 15.3722 25.3774 15.4343C25.2617 15.4965 25.1336 15.5325 25.0024 15.5398C24.879 15.5467 24.7559 15.5271 24.6401 15.4841C24.3862 15.4091 24.1986 15.258 24.0981 15.0457C24.0021 14.8425 24.0002 14.6138 24.0483 14.3992H24.0474C24.1317 13.9814 24.2411 13.5689 24.3735 13.1638V13.1628C25.5312 9.63712 27.7809 6.57072 30.7964 4.40796C33.8119 2.24535 37.4373 1.09844 41.1479 1.13257L41.5356 1.1394Z" fill="#FA8B02" stroke="#FA8B02" stroke-width="0.5"/>
<path d="M40.9346 7.48523C41.1678 7.46987 41.3704 7.50574 41.5361 7.60144C41.7041 7.6985 41.8102 7.84264 41.874 7.99792C41.9943 8.29091 41.9745 8.65263 41.9512 8.91589L41.9502 8.92078C41.9088 9.29983 41.9929 9.46499 42.0996 9.56042C42.2297 9.67652 42.4527 9.74763 42.8135 9.80945C44.5735 10.1102 45.72 11.1771 46.3516 12.7362L46.4717 13.0546V13.0555C46.5579 13.306 46.6915 13.667 46.6934 14.0009C46.6943 14.1751 46.6602 14.3605 46.5537 14.5272C46.4728 14.6538 46.359 14.757 46.2129 14.8348L46.0557 14.9042C45.8093 14.9946 45.5838 15.0152 45.3857 14.9413C45.1853 14.8664 45.0618 14.7129 44.9824 14.5604C44.9048 14.4111 44.8568 14.239 44.8193 14.0917C44.7991 14.0122 44.7818 13.9404 44.7646 13.8749L44.7109 13.6962C44.4088 12.8773 43.9034 12.2765 43.2451 11.9081C42.5851 11.5388 41.752 11.3925 40.7803 11.5184H40.7793C39.9103 11.6298 39.2217 11.9346 38.7324 12.3837C38.2452 12.831 37.9407 13.4352 37.8604 14.1757C37.7735 14.969 37.9456 15.6615 38.334 16.2147C38.7228 16.7682 39.3423 17.202 40.1846 17.452H40.1855C40.6131 17.5742 41.0531 17.66 41.5078 17.7567C41.9575 17.8524 42.418 17.9579 42.8633 18.118L43.2422 18.2684C45.0826 19.071 46.0792 20.6483 46.0723 22.6307L46.0586 23.036C45.9973 23.9662 45.7215 24.792 45.2314 25.4784C44.6713 26.2628 43.8429 26.8488 42.7754 27.2059H42.7744C42.4321 27.3192 42.2221 27.4285 42.0977 27.5692C41.9857 27.6959 41.9151 27.8821 41.9434 28.2274C41.9655 28.4606 42.0087 28.8203 41.9229 29.1219C41.8773 29.2818 41.7922 29.4412 41.6396 29.5614C41.4873 29.6814 41.2909 29.744 41.0566 29.7538C40.8245 29.7634 40.6238 29.7202 40.4619 29.6171C40.2985 29.5129 40.1985 29.363 40.1406 29.2059C40.0312 28.9088 40.0589 28.547 40.0859 28.288C40.124 27.9169 40.0581 27.7531 39.9648 27.6571C39.8828 27.5727 39.7483 27.5052 39.5244 27.4452L39.2695 27.3876C37.1677 26.9725 35.7141 25.4382 35.4141 23.5292V23.5282C35.3798 23.3077 35.3457 23.0384 35.417 22.8007C35.4549 22.6744 35.5231 22.5553 35.6328 22.4559C35.7412 22.3578 35.8785 22.2897 36.041 22.2469C36.3664 22.1614 36.6391 22.206 36.8525 22.3895C37.0426 22.553 37.1514 22.8014 37.2354 23.0282C37.6806 24.233 38.2432 24.9828 38.9668 25.3729C39.6903 25.763 40.6256 25.8205 41.8779 25.5282L41.8877 25.5262L42.1348 25.4677C42.7022 25.3054 43.208 24.9712 43.5811 24.5087C44.0074 23.9798 44.2327 23.3167 44.2168 22.6376V22.6307C44.2166 21.2662 43.3531 20.1373 41.8477 19.7137C41.4405 19.5995 41.0198 19.5229 40.584 19.4384C40.1532 19.3548 39.7096 19.2639 39.2803 19.119C37.1719 18.4074 35.9986 16.6959 36.0117 14.5145C36.012 13.4068 36.2878 12.4396 36.8486 11.662C37.4102 10.8832 38.2442 10.3132 39.3291 9.97937H39.3301C39.692 9.86851 39.8732 9.74235 39.9688 9.60144C40.0402 9.4961 40.0816 9.35615 40.0859 9.14929L40.0781 8.9198C40.0573 8.67423 40.0367 8.34376 40.1328 8.06433C40.1833 7.91771 40.2687 7.77527 40.4092 7.66687C40.5496 7.55848 40.7261 7.49914 40.9336 7.48523H40.9346Z" fill="#FA8B02" stroke="#FA8B02" stroke-width="0.5"/>
<path d="M11.5574 49.192C11.8731 49.1789 12.1883 49.2308 12.4832 49.3444C12.7782 49.458 13.0468 49.6315 13.2722 49.8531C13.4976 50.0748 13.6752 50.3404 13.7937 50.6334C13.9122 50.9265 13.9696 51.2412 13.9617 51.5573L13.9607 51.5563C13.9749 51.8758 13.9254 52.1951 13.8132 52.4948C13.6989 52.8 13.5232 53.0787 13.2966 53.3131C13.0702 53.5474 12.7979 53.7324 12.4968 53.8571C12.1968 53.9812 11.8742 54.042 11.5496 54.0367H11.5476L11.5457 54.0377V54.0367C10.1467 54.0345 9.14126 52.9505 9.1687 51.5289C9.16137 51.2165 9.21826 50.9055 9.33569 50.6158C9.4546 50.3228 9.63247 50.0571 9.85913 49.8365C10.0859 49.6158 10.3567 49.4445 10.6531 49.3336C10.9419 49.2256 11.2495 49.179 11.5574 49.193V49.192ZM11.6179 50.7965C11.331 50.7965 11.1391 50.8731 11.0183 50.986C10.8985 51.0978 10.816 51.2758 10.8054 51.5436C10.7946 51.8159 10.8603 52.0043 10.9666 52.1246C11.0709 52.2428 11.2459 52.3308 11.5281 52.3405L11.5427 52.3414L11.5564 52.3434C11.655 52.3581 11.756 52.3503 11.8513 52.3209C11.9467 52.2915 12.0349 52.2403 12.1082 52.1725C12.1812 52.1047 12.2385 52.021 12.2751 51.9283C12.3117 51.8356 12.3271 51.7358 12.3201 51.6364L12.3181 51.611L12.321 51.5865C12.334 51.4873 12.326 51.3863 12.2966 51.2906C12.2672 51.195 12.2175 51.1067 12.1511 51.0319C12.0847 50.957 12.0024 50.8976 11.9109 50.8571C11.8194 50.8165 11.72 50.7954 11.6199 50.7965H11.6179Z" fill="#FA8B02" stroke="#FA8B02" stroke-width="0.5"/>
</svg>
